<svg height="512pt" viewBox="0 0 512 512.00099" width="512pt" xmlns="http://www.w3.org/2000/svg"><path d="m90 97.5c0 28.949219 23.550781 52.5 52.5 52.5s52.5-23.550781 52.5-52.5c0-17.296875-8.414062-32.664062-21.355469-42.234375 8.320313-5.335937 13.855469-14.664063 13.855469-25.265625 0-16.542969-13.457031-30-30-30h-30c-16.542969 0-30 13.457031-30 30 0 10.601562 5.53125 19.929688 13.855469 25.265625-12.941407 9.570313-21.355469 24.9375-21.355469 42.234375zm52.5 37.5c-20.679688 0-37.5-16.824219-37.5-37.5 0-9.664062 3.675781-18.484375 9.699219-25.140625 16.691406 18.804687 39.578125 30.246094 64.609375 32.300781-3.355469 17.261719-18.578125 30.339844-36.808594 30.339844zm0-75c17.960938 0 33.003906 12.695312 36.652344 29.578125-20.15625-2-38.582032-11.210937-52.296875-26.144531 4.761719-2.199219 10.0625-3.433594 15.644531-3.433594zm-15-15c-8.269531 0-15-6.730469-15-15s6.730469-15 15-15h30c8.269531 0 15 6.730469 15 15s-6.730469 15-15 15zm0 0"/><path d="m204.871094 497.382812-24.871094-8.289062v-129.09375h17.351562c3.828126 0 7.039063-2.882812 7.457032-6.683594l4.808594-43.929687c.253906-2.390625.382812-4.820313.382812-7.222657 0-15.472656-5.304688-30.417968-15-42.40625v-60.042968c50.273438-3.84375 90-45.976563 90-97.214844 0-4.140625-3.355469-7.5-7.5-7.5-4.140625 0-7.5 3.359375-7.5 7.5 0 43.34375-33.605469 78.960938-76.125 82.230469-3.359375-11.390625-13.910156-19.730469-26.375-19.730469h-50c-12.5625 0-23.175781 8.472656-26.449219 20h-16.050781v-82.5c0-12.40625-10.09375-22.5-22.5-22.5s-22.5 10.09375-22.5 22.5v52.5h-7.5c-12.40625 0-22.5 10.09375-22.5 22.5s10.09375 22.5 22.5 22.5h7.5v52.5c0 12.40625 10.09375 22.5 22.5 22.5s22.5-10.09375 22.5-22.5v-52.5h15v59.757812c-9.691406 11.988282-15 26.933594-15 42.40625 0 2.414063.128906 4.84375.386719 7.246094l4.804687 43.90625c.417969 3.800782 3.628906 6.683594 7.457032 6.683594h17.351562v129.09375l-24.871094 8.289062c-3.929687 1.3125-6.050781 5.558594-4.742187 9.488282 1.046875 3.144531 3.972656 5.128906 7.113281 5.128906.785156 0 1.585938-.125 2.375-.386719l29.996094-10c3.066406-1.019531 5.128906-3.886719 5.128906-7.113281v-134.5h45v134.5c0 3.226562 2.066406 6.09375 5.128906 7.113281l30 10c.785156.261719 1.585938.386719 2.371094.386719 3.144531 0 6.066406-1.988281 7.117188-5.128906 1.308593-3.929688-.816407-8.179688-4.746094-9.488282zm-152.371094-402.382812c4.136719 0 7.5 3.363281 7.5 7.5s-3.363281 7.5-7.5 7.5-7.5-3.363281-7.5-7.5 3.363281-7.5 7.5-7.5zm-30 90c-4.136719 0-7.5-3.363281-7.5-7.5s3.363281-7.5 7.5-7.5h7.5v15zm37.5 67.5c0 4.136719-3.363281 7.5-7.5 7.5s-7.5-3.363281-7.5-7.5v-128.789062c2.347656.832031 4.871094 1.289062 7.5 1.289062s5.152344-.457031 7.5-1.289062zm57.5-72.5h50c6.894531 0 12.5 5.605469 12.5 12.5v62.5h-75v-62.5c0-6.894531 5.605469-12.5 12.5-12.5zm-27.199219 127.796875c-.199219-1.851563-.300781-3.75-.300781-5.632813 0-11.6875 3.90625-22.980468 11.039062-32.164062h82.921876c7.132812 9.183594 11.039062 20.476562 11.039062 32.164062 0 1.875-.101562 3.773438-.296875 5.613282l-4.074219 37.222656h-96.257812zm0 0"/><path d="m444.5 255h-132c-2.359375 0-4.585938 1.109375-6 3l-22.5 30c-1.703125 2.269531-1.980469 5.3125-.707031 7.851562 1.269531 2.542969 3.867187 4.148438 6.707031 4.148438h177c2.839844 0 5.4375-1.605469 6.707031-4.148438 1.269531-2.539062.996094-5.582031-.707031-7.851562l-22.5-30c-1.417969-1.890625-3.640625-3-6-3zm-139.5 30 11.25-15h124.5l11.25 15zm0 0"/><path d="m510.5 288-45-60c-1.417969-1.890625-3.640625-3-6-3h-162c-2.359375 0-4.585938 1.109375-6 3l-45 60c-.972656 1.296875-1.5 2.875-1.5 4.5v197c0 4.140625 3.355469 7.5 7.5 7.5h90c4.140625 0 7.496094-3.359375 7.5-7.5l.015625-53.507812c.003906-13.378907.007813-26.757813.007813-36.792969l-.003907-9.226563h56.960938c.003906 24.160156 0 98.632813 0 99.523438 0 1.988281.789062 3.898437 2.195312 5.304687s3.3125 2.195313 5.304688 2.195313h90.019531c4.140625 0 7.5-3.355469 7.5-7.5v-197c0-1.621094-.527344-3.199219-1.5-4.496094zm-58.5 149h15v45h-15zm15-15h-15v-39.527344c0-20.664062-16.824219-37.472656-37.5-37.472656h-72c-20.679688 0-37.5 16.8125-37.5 37.472656v39.527344h-15v-92h177zm-177 15h15v45h-15zm131.980469-54.179688c.121093-2.714843-1.246094-5.324218-3.609375-6.757812-1.125-.683594-2.441406-1.078125-3.851563-1.085938-.039062 0-72.007812 0-72.007812 0-3.878907 0-7.117188 2.953126-7.46875 6.816407-.027344.296875-.035157.589843-.03125.878906.019531 2.898437.003906 62.320313-.011719 99.328125h-15v-99.523438c0-12.394531 10.09375-22.476562 22.5-22.476562h71.996094c12.40625 0 22.5 10.082031 22.5 22.476562v99.523438h-15.019532c.003907-24.421875.007813-93.351562.003907-99.179688zm75.019531 99.179688h-15v-159.5c0-4.144531-3.359375-7.5-7.5-7.5h-192c-4.144531 0-7.5 3.355469-7.5 7.5v159.5h-15v-187l41.25-55h154.5l41.25 55zm0 0"/></svg>